<svg width="346" height="345" viewBox="0 0 346 345" fill="none" xmlns="http://www.w3.org/2000/svg">
<path d="M184.545 339.484H142.241V3.80139H184.545V339.484Z" fill="black" fill-opacity="0.78"/>
<path d="M150.075 13.1587C149.26 13.1587 148.597 13.8214 148.597 14.6347V135.281C148.597 136.096 149.26 136.759 150.075 136.759H175.681C176.496 136.759 177.159 136.096 177.159 135.281V14.6347C177.159 13.8214 176.496 13.1587 175.681 13.1587H150.075ZM175.681 137.743H150.075C148.717 137.743 147.613 136.639 147.613 135.281V14.6347C147.613 13.2774 148.717 12.1734 150.075 12.1734H175.681C177.04 12.1734 178.144 13.2774 178.144 14.6347V135.281C178.144 136.639 177.04 137.743 175.681 137.743Z" fill="white"/>
<path d="M52.3906 0.700043V338.984H97.188V0.700043H52.3906Z" fill="white" fill-opacity="0.2" stroke="black"/>
<path d="M59.468 6.75606C58.6534 6.75606 57.9907 7.41874 57.9907 8.2334V68.1881C57.9907 69.0014 58.6534 69.6641 59.468 69.6641H90.4907C91.3054 69.6641 91.968 69.0014 91.968 68.1881V8.2334C91.968 7.41874 91.3054 6.75606 90.4907 6.75606H59.468ZM90.4907 70.6494H59.468C58.1107 70.6494 57.0054 69.5454 57.0054 68.1881V8.2334C57.0054 6.87607 58.1107 5.77207 59.468 5.77207H90.4907C91.848 5.77207 92.9534 6.87607 92.9534 8.2334V68.1881C92.9534 69.5454 91.848 70.6494 90.4907 70.6494Z" fill="black"/>
<path d="M142.881 339.484H97.084V34.8254H142.881V339.484Z" fill="black"/>
<path d="M133.999 326.809H105.931V101.796H133.999V326.809Z" fill="#D2D2D2"/>
<path d="M133.999 72.4147H105.931V83.936H133.999V72.4147Z" fill="#D2D2D2"/>
<path d="M133.999 47.792H105.931V59.3147H133.999V47.792Z" fill="#D2D2D2"/>
<path d="M202.782 149.511C211.087 150.908 230.773 152.355 243.124 151.854C253.728 151.422 265.017 150.532 271.394 149.985C273 149.847 274.295 149.73 275.189 149.649C275.523 149.618 275.801 149.592 276.018 149.572L268.668 114.315H265.655C264.941 114.315 264.328 114.018 263.949 113.5C263.571 112.985 263.465 112.305 263.652 111.609L263.652 111.609L273.447 75.0532C270.985 71.7267 266.768 67.328 260.893 65.3704L260.892 65.3703C255.472 63.5626 246.551 61.8011 239.026 60.7641C239.387 62.7758 239.693 64.8217 239.88 66.4706C239.983 67.3867 240.051 68.1892 240.069 68.7982C240.078 69.1015 240.076 69.3689 240.057 69.5836C240.047 69.6907 240.033 69.7958 240.01 69.8912C239.99 69.9762 239.951 70.1017 239.868 70.213L239.868 70.2137C239.695 70.4428 239.419 70.5455 239.206 70.6001C238.97 70.661 238.686 70.6927 238.378 70.7035C237.759 70.7252 236.97 70.6641 236.111 70.5255C234.396 70.2486 232.324 69.6499 230.657 68.7042L230.902 68.2729L230.657 68.7042C229.081 67.8095 227.575 66.4401 226.45 64.8383C225.427 63.3816 224.7 61.7067 224.541 59.9966C216.522 60.3343 207.172 61.5216 203.438 62.5243L203.437 62.5243C198.292 63.9042 192.185 68.7035 189.249 77.5101C187.769 81.9521 185.797 90.0598 184.828 98.8172C183.892 107.269 183.898 116.257 186.129 123.13C186.194 123.066 186.263 122.998 186.338 122.927C186.845 122.438 187.584 121.769 188.516 121.043C190.378 119.594 193.029 117.901 196.159 116.969C199.275 116.04 202.576 115.844 205.083 115.877C206.339 115.894 207.403 115.968 208.154 116.038C208.529 116.073 208.827 116.107 209.031 116.132C209.134 116.145 209.213 116.155 209.267 116.163L209.329 116.172L209.345 116.174L209.35 116.175L209.351 116.175L209.352 116.175C209.352 116.175 209.352 116.175 209.277 116.669L209.352 116.175L209.545 116.204L209.667 116.356C211.699 118.881 214.672 120.108 218.1 120.553C221.532 120.997 225.369 120.649 229.053 120.067L229.053 120.067C232.732 119.487 236.69 118.585 239.734 117.511C241.259 116.974 242.529 116.401 243.417 115.819C243.861 115.528 244.191 115.246 244.408 114.981C244.625 114.716 244.711 114.493 244.721 114.308C244.79 112.906 245.509 110.885 246.362 109.179C246.793 108.318 247.27 107.513 247.738 106.883C247.972 106.568 248.21 106.288 248.446 106.066C248.675 105.848 248.93 105.658 249.201 105.559L249.201 105.559C249.478 105.459 249.787 105.446 250.067 105.61C250.327 105.762 250.471 106.016 250.556 106.248C250.722 106.705 250.748 107.344 250.715 108.001C250.648 109.345 250.315 111.068 249.988 112.379L249.988 112.379C249.678 113.618 249.783 114.337 250.301 114.88C250.88 115.486 252.065 115.984 254.274 116.438L254.274 116.438C255.315 116.653 256.627 116.68 258.038 116.612C259.427 116.544 260.877 116.387 262.213 116.242L262.262 116.237C263.598 116.092 264.836 115.958 265.74 115.954C266.185 115.952 266.6 115.98 266.919 116.078C267.08 116.127 267.257 116.206 267.399 116.343C267.556 116.494 267.649 116.696 267.649 116.928C267.649 117.334 267.384 117.641 267.142 117.844C266.884 118.06 266.54 118.255 266.164 118.43C265.554 118.715 264.791 118.979 264.012 119.212C264.597 119.257 265.146 119.336 265.562 119.473C265.849 119.567 266.198 119.728 266.381 120.038C266.484 120.211 266.523 120.411 266.487 120.617C266.454 120.81 266.36 120.981 266.248 121.126C265.847 121.648 265.102 122.104 264.306 122.49C263.559 122.852 262.696 123.184 261.865 123.471C262.691 123.489 263.511 123.547 264.044 123.693C264.186 123.732 264.332 123.783 264.458 123.855C264.578 123.922 264.738 124.039 264.825 124.236C264.925 124.462 264.884 124.689 264.788 124.863C264.702 125.019 264.569 125.143 264.437 125.243C264.162 125.451 263.782 125.624 263.365 125.771C262.941 125.922 262.443 126.059 261.907 126.183C260.835 126.431 259.577 126.636 258.384 126.799C257.189 126.963 256.049 127.085 255.208 127.167C254.788 127.207 254.442 127.238 254.201 127.258C254.085 127.268 253.994 127.276 253.93 127.281C247.291 130.918 237.454 135.476 227.904 138.907C223.106 140.631 218.372 142.074 214.145 142.972C209.931 143.868 206.174 144.233 203.355 143.763L203.355 143.763C202.519 143.623 201.732 143.412 200.978 143.166C200.618 144.028 200.187 145.11 199.844 146.125C199.643 146.721 199.475 147.284 199.369 147.76C199.279 148.162 199.244 148.459 199.25 148.651C199.262 148.658 199.276 148.666 199.293 148.674C199.435 148.746 199.664 148.831 199.99 148.925C200.637 149.112 201.583 149.309 202.782 149.511ZM202.782 149.511L202.699 150.004M202.782 149.511L202.699 150.004M202.699 150.004C200.291 149.599 198.825 149.199 198.767 148.849L276.12 150.065C275.343 150.137 273.698 150.289 271.437 150.483C265.057 151.031 253.76 151.921 243.144 152.353C230.759 152.856 211.039 151.407 202.699 150.004ZM199.188 148.611C199.186 148.609 199.185 148.609 199.187 148.61L199.188 148.611Z" fill="black" fill-opacity="0.2" stroke="black"/>
<path d="M225.513 59.455L225.513 59.455L225.513 59.4654C225.552 61.0997 226.223 62.7752 227.268 64.2629C228.312 65.7489 229.708 67.0158 231.147 67.8345C232.685 68.7049 234.635 69.2741 236.27 69.5377C237.087 69.6694 237.806 69.7217 238.34 69.7024C238.609 69.6928 238.813 69.6655 238.953 69.6293C238.994 69.6185 239.024 69.6085 239.046 69.6003C239.056 69.5386 239.064 69.4491 239.069 69.3282C239.08 69.0642 239.07 68.6992 239.04 68.2468C238.982 67.3453 238.849 66.1421 238.667 64.7984C238.462 63.3739 238.203 61.7935 237.924 60.2631C237.703 59.0863 237.463 57.9303 237.222 56.9037C237.216 56.9004 237.21 56.897 237.203 56.8936C237.131 56.8558 237.047 56.8112 236.965 56.7612C234.929 55.5718 233.102 52.987 231.791 50.191C230.837 48.1545 230.129 45.945 229.814 43.9726C229.178 45.6318 228.488 47.6239 227.858 49.6298L227.858 49.6323C227.252 51.5256 226.695 53.426 226.275 55.0647C225.852 56.7146 225.577 58.0659 225.523 58.8772L225.522 58.8847L225.522 58.8922C225.505 59.0674 225.504 59.2608 225.513 59.455Z" fill="white" stroke="black"/>
<path d="M231.336 32.8014L231.747 33.0854L231.239 33.822L230.879 33.0045L230.879 33.0041L230.879 33.0036L230.878 33.0033L230.878 33.0031L230.878 33.0029L230.873 32.9917C230.868 32.9805 230.859 32.9621 230.846 32.9377C230.821 32.8889 230.782 32.8163 230.727 32.7284C230.619 32.5515 230.454 32.3185 230.232 32.0921C229.79 31.641 229.148 31.2399 228.261 31.3105C227.917 31.3382 227.402 31.6373 226.83 32.2653C226.278 32.8707 225.748 33.7025 225.362 34.6179C224.571 36.4961 224.477 38.4715 225.633 39.6278L225.633 39.6279C226.911 40.9065 227.98 41.0134 228.688 40.8752C229.059 40.8028 229.36 40.6573 229.568 40.5289C229.672 40.465 229.751 40.4066 229.802 40.366C229.828 40.3458 229.846 40.3301 229.857 40.3206L229.867 40.3114C229.867 40.3113 229.867 40.3114 229.867 40.3113C229.867 40.311 229.868 40.3107 229.868 40.3106C229.868 40.3105 229.868 40.3105 229.868 40.3106L230.946 39.2752L230.705 40.7538C230.653 41.075 230.636 41.4442 230.634 41.8494C230.629 44.0491 231.42 47.0402 232.697 49.768C233.979 52.5073 235.699 54.8659 237.469 55.8994C237.562 55.9525 237.655 56.0012 237.759 56.0549C237.801 56.077 237.845 56.0999 237.892 56.1244L237.893 56.1251C239.912 57.1965 242.527 57.8489 245.23 57.4366C247.919 57.0263 250.734 55.5563 253.168 52.312C255.692 48.9468 257.176 44.151 257.9 39.4282C258.623 34.7107 258.576 30.137 258.092 27.2617C258.064 27.0932 257.962 26.84 257.752 26.5043C257.546 26.1754 257.254 25.7964 256.879 25.3807C256.131 24.5497 255.079 23.5988 253.796 22.6418C251.23 20.7267 247.784 18.8175 244.092 17.7994C242.292 17.3027 240.809 17.3625 239.591 17.7627C238.371 18.1636 237.38 18.9179 236.585 19.8664C234.982 21.7769 234.205 24.4389 233.996 26.3687L233.996 26.3687C233.773 28.4176 233.216 30.0882 232.714 31.2487C232.463 31.8292 232.225 32.2832 232.048 32.5944C231.959 32.7501 231.886 32.8702 231.834 32.9526C231.808 32.9939 231.787 33.0257 231.773 33.0479L231.755 33.074L231.75 33.0815L231.748 33.0839L231.748 33.0847L231.748 33.0851C231.747 33.0852 231.747 33.0854 231.336 32.8014Z" fill="white" stroke="black"/>
<path d="M320.538 117.688H275.435C279.321 121.711 288.356 129.058 300.348 128.583C306.758 128.329 311.957 125.419 315.568 122.549C317.372 121.116 318.772 119.698 319.72 118.64C320.048 118.275 320.321 117.953 320.538 117.688Z" fill="white" stroke="black"/>
<path d="M229.587 31.0374C229.692 29.8614 229 24.844 229.173 20.9507C229.347 17.0573 232.893 11.0227 237.132 10.484C241.371 9.94402 245.177 10.5707 249.935 10.484C254.692 10.3973 260.921 12.0734 264.468 16.944C268.015 21.816 263.084 27.092 258.585 27.1787C254.087 27.2654 250.713 25.1027 247.772 22.7667C244.831 20.432 241.457 20.0854 240.937 21.9894C240.419 23.892 239.813 25.968 238.169 25.8814C236.527 25.7947 235.661 22.6814 235.056 23.2C234.451 23.7187 234.017 27.9574 233.067 30.4667C232.115 32.9747 231.583 33.2374 231.336 32.8014C231.088 32.3667 229.587 31.0374 229.587 31.0374Z" fill="#0C0346"/>
<path d="M284.796 344.467L264.813 325.58L268.237 316.736L268.253 316.747C271.308 319.614 276.544 322.852 281.057 325.364C281.777 329.601 284.796 344.467 284.796 344.467Z" fill="black"/>
<path d="M242.428 328.735L244.052 338.945L215.635 340.632L231.511 327.885C235.543 328.976 239.477 328.996 242.428 328.735Z" fill="black"/>
<path d="M202.529 210.744C204.605 223.585 211.353 262.783 213.045 270.817C214.727 278.873 224.464 324.672 224.464 324.672C226.716 326.229 229.135 327.247 231.512 327.891C235.54 328.98 239.475 328.991 242.433 328.731C245.443 328.472 247.425 327.91 247.425 327.91C247.425 327.91 245.349 265.761 244.571 251.229C243.793 236.696 240.803 182.063 240.803 180.775C240.803 179.467 242.495 180.775 243.015 181.295C243.533 181.813 277.136 237.993 277.136 237.993C277.136 237.993 273.503 260.956 272.34 267.973C271.177 274.969 266.505 314.81 266.505 314.81C266.941 315.422 267.544 316.077 268.249 316.741C271.312 319.616 276.544 322.856 281.06 325.368C285.503 327.839 289.24 329.603 289.468 329.603C289.987 329.603 294.783 313.897 300.108 295.731C305.433 277.564 311.267 245.655 311.527 239.551C311.787 233.447 307.115 220.347 302.049 210.879C298.499 204.215 286.271 180.028 278.288 164.165C278.069 163.72 277.841 163.284 277.623 162.848C274.581 156.796 272.256 152.156 271.436 150.484C269.34 150.661 266.703 150.879 263.735 151.107C263.36 151.139 262.976 151.159 262.592 151.191C256.768 151.627 249.824 152.083 243.149 152.353C241.323 152.425 239.34 152.456 237.253 152.456C236.911 152.456 236.557 152.456 236.204 152.447C228.657 152.395 219.98 151.885 212.879 151.232C212.527 151.2 212.173 151.169 211.831 151.139C208.176 150.785 205 150.391 202.696 150.007C202.041 152.301 200.868 157.055 200.319 163.377C200.245 164.28 200.184 165.339 200.141 166.533C200.121 166.937 200.111 167.353 200.1 167.789C199.809 178.989 200.723 199.605 202.529 210.744Z" fill="black"/>
<path d="M248.723 117.188H329.073C330.059 117.188 331.08 116.383 331.343 115.399C331.607 114.413 331.017 113.608 330.033 113.608H249.681C248.697 113.608 247.676 114.413 247.412 115.399C247.149 116.383 247.739 117.188 248.723 117.188Z" fill="black"/>
<path d="M250.216 47.3787C250.293 47.3787 250.372 47.36 250.445 47.3253C250.624 47.2373 250.737 47.0533 250.735 46.8533C250.672 40.5546 250.869 33.5946 251.309 32.8533C251.444 32.628 251.945 32.3093 252.945 32.0893C254.721 31.6986 256.857 31.8533 257.709 32.4306C257.947 32.592 258.269 32.5306 258.431 32.2933C258.592 32.056 258.531 31.7333 258.293 31.572C257.049 30.7267 254.496 30.6853 252.721 31.0747C251.904 31.2547 250.841 31.6173 250.42 32.3186C249.7 33.5173 249.671 42.2693 249.689 45.7866L247.228 43.856C247.003 43.6786 246.676 43.7187 246.499 43.944C246.321 44.1693 246.361 44.496 246.587 44.672L249.896 47.268C249.989 47.34 250.101 47.3787 250.216 47.3787Z" fill="#0C0346"/>
<path d="M244.831 31.4827C244.981 31.4827 245.132 31.4173 245.235 31.2893C245.415 31.0666 245.38 30.74 245.157 30.56C243.309 29.0666 239.741 29.1 238.24 29.8506C237.984 29.9786 237.88 30.2907 238.008 30.5467C238.137 30.804 238.449 30.9053 238.705 30.7787C239.777 30.2427 242.964 30.124 244.505 31.368C244.601 31.4453 244.716 31.4827 244.831 31.4827Z" fill="#0C0346"/>
<path d="M229.147 37.3214C229.371 37.3214 229.579 37.1734 229.644 36.9467C229.66 36.888 230.051 35.5 229.651 33.7667C229.587 33.488 229.305 33.312 229.029 33.3774C228.749 33.4414 228.575 33.72 228.639 34C228.976 35.4587 228.649 36.6494 228.645 36.66C228.568 36.936 228.728 37.2227 229.004 37.3014C229.051 37.3147 229.099 37.3214 229.147 37.3214Z" fill="#0C0346"/>
<path d="M246.789 51.8227C247.596 51.8227 248.163 51.728 248.228 51.7174C248.511 51.668 248.7 51.4 248.65 51.1174C248.601 50.836 248.331 50.6454 248.052 50.6947C248.009 50.7027 243.874 51.3774 242.078 48.7707C241.917 48.536 241.593 48.476 241.357 48.6374C241.121 48.8 241.061 49.1227 241.224 49.36C242.668 51.456 245.196 51.8227 246.789 51.8227Z" fill="#0C0346"/>
<path d="M267.149 104.732C267.196 104.732 267.244 104.725 267.292 104.711C267.568 104.632 267.727 104.345 267.648 104.069L263.107 88.2387C263.028 87.9627 262.737 87.804 262.465 87.8827C262.189 87.9627 262.029 88.2493 262.109 88.5253L266.651 104.356C266.716 104.584 266.923 104.732 267.149 104.732Z" fill="black"/>
<path d="M209.276 117.188C209.425 117.188 209.573 117.124 209.677 117C209.859 116.779 209.829 116.452 209.608 116.269C206.065 113.337 205.603 99.3573 208.833 92.896C208.961 92.64 208.857 92.328 208.601 92.2C208.344 92.072 208.033 92.1747 207.904 92.432C204.368 99.504 204.972 113.78 208.947 117.069C209.043 117.149 209.16 117.188 209.276 117.188Z" fill="black"/>
<path d="M262.592 151.191C263.744 153.277 266.579 156.443 269.64 159.028C271.633 160.709 274.965 163.18 278.288 164.165C278.069 163.72 277.841 163.284 277.623 162.848C272.111 160.72 265.8 154.408 263.735 151.107C263.36 151.139 262.976 151.159 262.592 151.191Z" fill="#0C0346"/>
<path d="M200.1 167.789C204.408 165.308 210.761 157.429 212.879 151.232C212.527 151.2 212.173 151.169 211.831 151.139C209.796 156.952 203.993 163.989 200.141 166.533C200.121 166.937 200.111 167.353 200.1 167.789Z" fill="#0C0346"/>
<path d="M236.204 152.447L237.18 161.883C237.201 162.141 237.429 162.339 237.689 162.339H237.751C238.032 162.308 238.239 162.059 238.208 161.768L237.253 152.456C236.911 152.456 236.557 152.456 236.204 152.447Z" fill="#0C0346"/>
<path d="M243.04 35.128C242.849 35.912 243.091 36.6427 243.577 36.7613C244.065 36.88 244.615 36.3413 244.805 35.5573C244.996 34.7747 244.755 34.0427 244.267 33.924C243.78 33.8067 243.231 34.3453 243.04 35.128Z" fill="#0C0346"/>
<path d="M254.243 36.564C254.052 37.3467 254.293 38.0774 254.78 38.196C255.268 38.3147 255.817 37.776 256.008 36.992C256.197 36.2093 255.957 35.4773 255.469 35.36C254.983 35.2413 254.433 35.78 254.243 36.564Z" fill="#0C0346"/>
<path d="M264.135 111.739L273.992 74.9507L276.652 65.0253C276.957 63.884 278.143 62.9494 279.284 62.9494H344.033C345.176 62.9494 345.859 63.884 345.553 65.0253L333.037 111.739C332.731 112.88 331.545 113.815 330.404 113.815H269.075H265.655C264.513 113.815 263.829 112.88 264.135 111.739Z" fill="black"/>
<path d="M307.473 79.86C305.76 79.784 304.633 81.012 303.989 82.056C302.48 84.5013 302.157 88.2733 303.285 90.2933C303.779 91.1773 304.496 91.6253 305.42 91.6253C307.977 91.6253 309.219 88.1707 309.289 84.9613C309.351 82.196 308.535 79.908 307.473 79.86ZM302.379 90.7987C301.068 88.4507 301.395 84.284 303.107 81.5107C304.223 79.7027 305.789 78.7453 307.519 78.8227C309.54 78.912 310.392 82.08 310.327 84.984C310.243 88.8067 308.692 92.664 305.42 92.664C304.111 92.664 303.059 92.0187 302.379 90.7987Z" fill="white"/>
<path d="M196.444 117.927L196.444 117.927C193.475 118.811 190.935 120.427 189.131 121.832C188.23 122.533 187.518 123.178 187.031 123.647C186.793 123.877 186.609 124.064 186.484 124.194C187.318 126.815 188.733 130.466 190.982 133.855C193.312 137.365 196.514 140.561 200.861 142.072L200.862 142.072C201.718 142.37 202.591 142.621 203.519 142.776C206.15 143.215 209.758 142.882 213.937 141.994C218.105 141.108 222.794 139.681 227.566 137.966C237.111 134.537 246.948 129.973 253.543 126.352L253.638 126.3L253.746 126.292L253.747 126.292L253.748 126.292L253.752 126.292L253.77 126.29L253.842 126.285C253.905 126.28 253.997 126.272 254.116 126.262C254.354 126.242 254.696 126.212 255.112 126.171C255.944 126.091 257.07 125.97 258.249 125.808C259.429 125.647 260.652 125.447 261.682 125.208C262.197 125.089 262.655 124.962 263.031 124.829C263.245 124.753 263.421 124.679 263.563 124.608C263.124 124.525 262.471 124.482 261.735 124.468C260.883 124.452 259.975 124.476 259.276 124.504C258.928 124.518 258.633 124.533 258.426 124.545C258.322 124.551 258.24 124.555 258.184 124.559L258.121 124.563L258.105 124.564L258.101 124.564L258.1 124.564L258.1 124.564L258.067 124.065L258.1 124.564L257.95 123.579L257.95 123.579L257.95 123.579L257.951 123.579L257.954 123.578L257.967 123.575L258.02 123.562C258.067 123.551 258.136 123.533 258.224 123.511C258.402 123.465 258.657 123.399 258.968 123.313C259.591 123.143 260.433 122.898 261.313 122.602C262.196 122.305 263.106 121.96 263.87 121.59C264.656 121.209 265.209 120.838 265.456 120.517C265.457 120.515 265.459 120.513 265.46 120.511C265.418 120.487 265.352 120.456 265.249 120.423C264.79 120.271 264.02 120.194 263.145 120.17C262.287 120.146 261.385 120.174 260.694 120.208C260.349 120.225 260.059 120.244 259.855 120.258C259.753 120.265 259.672 120.271 259.618 120.276L259.556 120.281L259.54 120.282L259.537 120.282L259.536 120.282L259.536 120.282L259.536 120.282L259.402 119.292L259.402 119.292L259.403 119.292L259.406 119.292L259.422 119.289L259.485 119.277C259.54 119.266 259.621 119.25 259.724 119.23C259.931 119.188 260.228 119.127 260.583 119.05C261.295 118.895 262.242 118.674 263.187 118.41C264.136 118.144 265.062 117.841 265.742 117.524C266.084 117.364 266.338 117.213 266.499 117.078C266.525 117.055 266.547 117.035 266.566 117.017C266.393 116.976 266.123 116.952 265.745 116.954C264.905 116.958 263.726 117.084 262.37 117.231L262.308 117.238C260.98 117.382 259.505 117.542 258.086 117.61C256.65 117.68 255.238 117.658 254.072 117.418C251.87 116.964 250.394 116.424 249.578 115.571C248.702 114.653 248.678 113.492 249.017 112.136C249.338 110.852 249.654 109.201 249.716 107.951C249.748 107.311 249.709 106.846 249.616 106.59C249.598 106.54 249.581 106.509 249.57 106.49C249.563 106.492 249.554 106.495 249.543 106.499C249.457 106.53 249.319 106.616 249.133 106.792C248.953 106.962 248.753 107.194 248.541 107.479C248.117 108.049 247.669 108.801 247.257 109.626C246.422 111.295 245.779 113.166 245.719 114.358C245.696 114.822 245.486 115.244 245.181 115.615C244.877 115.986 244.459 116.332 243.966 116.655C242.98 117.302 241.623 117.905 240.067 118.454C236.947 119.555 232.925 120.469 229.209 121.055C225.495 121.642 221.546 122.007 217.971 121.544C214.459 121.089 211.259 119.826 209.015 117.138C208.983 117.134 208.948 117.129 208.908 117.124C208.713 117.1 208.426 117.067 208.061 117.033C207.332 116.965 206.295 116.893 205.07 116.877C202.614 116.845 199.426 117.039 196.444 117.927ZM263.979 124.733C263.979 124.733 263.978 124.732 263.975 124.731C263.978 124.732 263.979 124.733 263.979 124.733ZM249.598 106.485C249.599 106.485 249.598 106.485 249.596 106.485C249.597 106.485 249.598 106.485 249.598 106.485Z" fill="white" stroke="black"/>
<path d="M148.312 294.303L148.312 294.303C145.892 281.182 139.871 262.916 137.007 256.862C135.67 254.036 132.674 252.598 129.228 252.268C125.923 251.951 122.317 252.672 119.665 254.058L121.814 264.668C122.273 264.245 122.695 263.837 123.073 263.45L123.67 262.836L123.911 263.658C125.963 270.675 130.904 288.463 135.33 304.49C137.543 312.505 139.628 320.082 141.16 325.655C141.926 328.441 142.553 330.727 142.989 332.316L143.493 334.152L143.598 334.532L155.404 334.275L155.294 333.646C155.159 332.871 154.963 331.749 154.721 330.363C154.237 327.589 153.565 323.754 152.818 319.508C151.324 311.014 149.526 300.879 148.312 294.303Z" fill="#A2A2A2" stroke="black"/>
<path d="M101.7 286.843L102.225 286.122L102.566 286.946L122.418 334.885L142.54 334.447L142.533 334.421L142.029 332.584C141.593 330.995 140.965 328.71 140.199 325.923C138.667 320.35 136.582 312.773 134.368 304.758C130.101 289.31 125.359 272.241 123.182 264.75C122.766 265.154 122.312 265.574 121.833 266.001C119.447 268.129 116.238 270.543 112.523 272.828C112.323 272.951 112.115 273.075 111.91 273.198C111.848 273.234 111.787 273.271 111.726 273.308L111.726 273.308C106.773 276.273 100.97 278.964 94.9738 280.45C93.0384 280.932 91.0503 281.266 89.065 281.499L89.06 281.5C88.5299 281.557 87.9922 281.614 87.4529 281.653C80.6735 282.239 74.0111 281.64 69.4904 281.007C67.4461 282.524 65.444 284.023 63.51 285.48L63.5097 285.48C57.5098 289.991 52.1537 294.071 48.2975 297.023C46.3695 298.499 44.8164 299.694 43.7455 300.519C43.21 300.931 42.7951 301.251 42.5141 301.469L42.1946 301.715L42.1133 301.778L42.0928 301.794L42.0877 301.798L42.0864 301.799L42.0861 301.799C42.0861 301.799 42.086 301.799 41.7799 301.404L42.086 301.799L42.004 301.863L41.9035 301.889C40.9394 302.135 39.582 302.177 38.0113 302.093C37.8139 302.086 37.6014 302.071 37.3944 302.056C37.2757 302.047 37.1588 302.039 37.0477 302.032L37.0477 302.033L37.037 302.032C34.1001 301.795 30.4868 301.201 27.1134 300.552L27.1134 300.553L27.1006 300.55C26.8508 300.495 26.6011 300.447 26.3437 300.398C26.3019 300.39 26.2599 300.382 26.2176 300.374L26.2138 300.373C23.5445 299.839 21.0744 299.285 19.272 298.865C18.3706 298.654 17.6359 298.478 17.1262 298.353C17.0487 298.334 16.9764 298.317 16.9095 298.3C16.6482 302.424 16.9164 308.715 17.7264 314.863C18.5788 321.333 20.0184 327.537 22.011 330.89L22.0113 330.89C24.0187 334.277 26.1093 336.237 28.5232 337.426C30.9524 338.623 33.7548 339.063 37.2425 339.324L37.2426 339.324C40.7321 339.585 44.1031 339.759 48.2481 338.662C52.3979 337.563 57.3596 335.18 63.982 330.268L64.2799 330.669L63.982 330.268C70.5777 325.375 79.9953 314.544 87.7944 304.887C91.6863 300.067 95.1631 295.556 97.6671 292.249C98.919 290.596 99.9275 289.244 100.623 288.305C100.971 287.836 101.24 287.47 101.422 287.222C101.514 287.098 101.583 287.003 101.63 286.939L101.682 286.867L101.695 286.849L101.699 286.845L101.699 286.843C101.7 286.843 101.7 286.843 102.104 287.138L101.7 286.843Z" fill="#D2D2D2" stroke="black"/>
<path d="M142.423 335.445L123.41 335.859L122.582 340.624L148.388 340.064L142.423 335.445Z" fill="white" stroke="black"/>
<path d="M144.012 335.41L149.977 340.03L164.07 339.723L155.313 335.165L144.012 335.41Z" fill="white" stroke="black"/>
<path d="M137.733 255.983L137.733 255.983L137.734 255.98L145.223 233.82C145.223 233.82 145.223 233.819 145.223 233.819C145.449 233.143 145.078 232.393 144.406 232.169L144.405 232.168L135.178 229.051L135.177 229.051L133.97 228.645L133.968 228.644C133.286 228.411 132.547 228.779 132.321 229.46L132.32 229.463L124.831 251.624L124.831 251.624L124.83 251.627C124.598 252.3 124.966 253.048 125.647 253.273L125.647 253.273L125.649 253.274L127.301 253.833L127.301 253.833L136.085 256.798L136.085 256.798L136.088 256.799C136.76 257.031 137.509 256.663 137.733 255.983Z" fill="black" stroke="white"/>
<path d="M125.647 253.273L125.647 253.273L125.649 253.274L126.821 253.67C129.149 246.438 133.004 234.422 134.716 228.896L133.97 228.645L133.968 228.644C133.286 228.411 132.547 228.779 132.321 229.46L132.32 229.463L124.831 251.624L124.831 251.624L124.83 251.627C124.598 252.3 124.966 253.048 125.647 253.273Z" fill="black" stroke="white"/>
<path d="M125.722 261.115C125.74 261.111 125.758 261.107 125.777 261.103C126.193 261.013 126.793 260.871 127.525 260.668C128.99 260.261 130.976 259.606 133.063 258.617C135.148 257.63 137.115 256.368 138.495 255.25C139.187 254.689 139.714 254.18 140.034 253.772C140.179 253.588 140.267 253.443 140.313 253.337C140.18 253.325 139.986 253.333 139.732 253.367C139.182 253.441 138.469 253.622 137.748 253.837C137.032 254.051 136.328 254.293 135.802 254.482C135.539 254.576 135.321 254.657 135.17 254.714C135.094 254.743 135.034 254.766 134.994 254.781L134.949 254.799L134.937 254.803L134.935 254.804L134.934 254.804L134.934 254.804L134.934 254.804L134.934 254.804L134.533 253.889L134.752 254.339L134.533 253.889L134.533 253.889L134.534 253.889L134.537 253.887L134.55 253.881L134.602 253.855C134.647 253.833 134.714 253.8 134.8 253.757C134.97 253.671 135.214 253.548 135.504 253.397C136.084 253.094 136.849 252.683 137.59 252.246C138.336 251.805 139.036 251.351 139.502 250.963C139.632 250.854 139.734 250.759 139.81 250.678C139.625 250.682 139.379 250.712 139.079 250.772C138.398 250.908 137.535 251.171 136.675 251.47C135.818 251.767 134.982 252.092 134.358 252.343C134.046 252.469 133.788 252.576 133.609 252.651C133.519 252.689 133.449 252.719 133.401 252.739L133.347 252.762L133.333 252.768L133.33 252.769L133.329 252.77L133.329 252.77L133.131 252.311M125.722 261.115L125.181 248.683C125.457 248.602 126.192 248.329 127.163 247.97C127.351 247.9 127.548 247.827 127.753 247.751C129.027 247.28 130.616 246.697 132.19 246.158C133.767 245.618 135.317 245.125 136.517 244.829C137.12 244.68 137.615 244.587 137.973 244.558C138.038 244.552 138.096 244.549 138.146 244.548C138.057 244.66 137.924 244.797 137.742 244.959C137.229 245.413 136.457 245.944 135.635 246.459C134.818 246.971 133.974 247.453 133.333 247.808C133.013 247.985 132.744 248.13 132.555 248.231C132.461 248.281 132.387 248.32 132.337 248.347L132.279 248.377L132.265 248.385L132.261 248.386L132.26 248.387L132.26 248.387L132.491 248.831M125.722 261.115C125.721 261.071 125.721 261.026 125.72 260.979C125.712 260.511 125.687 259.858 125.62 259.119C125.489 257.655 125.191 255.793 124.502 254.355C123.821 252.933 122.913 251.855 122.179 251.133C121.811 250.771 121.485 250.497 121.248 250.312C121.215 250.286 121.185 250.262 121.156 250.24C121.168 250.197 121.18 250.153 121.192 250.108C121.562 248.782 122.096 246.871 122.668 245.247C122.991 244.331 123.317 243.533 123.622 242.991C123.757 242.752 123.874 242.587 123.968 242.487C124.012 242.626 124.046 242.834 124.065 243.113C124.105 243.7 124.074 244.459 124.043 245.242L124.04 245.292C124.009 246.069 123.977 246.878 124.037 247.47C124.066 247.755 124.122 248.065 124.26 248.302C124.333 248.429 124.449 248.568 124.628 248.651C124.816 248.738 125.011 248.734 125.181 248.683L125.722 261.115ZM133.131 252.311L133.329 252.77L132.878 251.879L133.131 252.311ZM133.131 252.311L132.878 251.879L132.878 251.879L132.879 251.878L132.884 251.876L132.903 251.865L132.975 251.822C133.039 251.784 133.132 251.729 133.251 251.658C133.489 251.517 133.829 251.313 134.234 251.067C135.045 250.574 136.117 249.909 137.166 249.221C138.219 248.531 139.235 247.826 139.941 247.251C140.155 247.077 140.332 246.921 140.47 246.787C140.254 246.812 139.989 246.86 139.682 246.93C138.856 247.117 137.804 247.44 136.76 247.792C135.719 248.144 134.697 248.519 133.936 248.808C133.555 248.952 133.24 249.074 133.02 249.16C132.91 249.203 132.824 249.237 132.765 249.26L132.699 249.286L132.682 249.293L132.678 249.294L132.677 249.295L132.676 249.295L132.491 248.831M132.491 248.831L132.676 249.295L132.26 248.387L132.491 248.831ZM138.391 244.567C138.394 244.569 138.395 244.569 138.396 244.569C138.396 244.569 138.394 244.568 138.391 244.567ZM138.27 244.352C138.27 244.352 138.269 244.354 138.268 244.358C138.269 244.353 138.27 244.351 138.27 244.352ZM140.937 246.781C140.94 246.782 140.942 246.783 140.942 246.783C140.942 246.783 140.941 246.782 140.937 246.781ZM139.974 250.46C139.974 250.46 139.973 250.461 139.972 250.464C139.974 250.461 139.974 250.46 139.974 250.46ZM140.35 253.218C140.35 253.218 140.35 253.219 140.35 253.221C140.351 253.219 140.35 253.218 140.35 253.218ZM140.44 253.359C140.443 253.361 140.446 253.362 140.446 253.362C140.446 253.362 140.444 253.361 140.44 253.359ZM123.91 242.355C123.91 242.355 123.911 242.357 123.914 242.359C123.912 242.356 123.911 242.355 123.91 242.355ZM124.072 242.395C124.076 242.394 124.078 242.393 124.078 242.393C124.078 242.392 124.076 242.393 124.072 242.395Z" fill="white" stroke="black"/>
<path d="M118.072 252.885C116.728 251.923 114.961 251.424 112.488 251.519C110.876 251.581 105.875 254.557 99.2319 259.023C101.38 258.719 103.524 258.337 105.639 257.867C112.137 256.42 115.933 254.437 118.072 252.885Z" fill="#0C0346"/>
<path d="M41.7801 301.404C41.7801 301.404 29.472 300.319 25.96 299.493C22.4494 298.668 16.4534 297.672 16.4534 297.672C16.4534 297.672 36.5134 302.759 41.7801 301.404Z" fill="#2C119C"/>
<path d="M133.072 335.153L132.125 335.173L111.469 272.879L108.604 264.221C106.507 266.044 98.2413 273.21 89.0067 281.003C79.868 288.693 69.7973 296.991 63.8133 301.296C51.1107 310.443 33.9707 319.209 31.9493 318.253C31.448 318.01 30.7947 316.971 30.1027 315.444C30.0387 315.373 30 315.284 29.9893 315.193C28.3093 311.344 26.4973 304.72 26.312 299.883C26.6107 299.94 26.9093 299.996 27.208 300.061C27.3987 304.683 29.0667 310.498 30.5067 314.1C31.7827 311.837 35.3653 305.376 37.0773 301.533C37.4107 301.553 37.7267 301.583 38.0333 301.593C36.1613 305.908 31.752 313.721 30.944 315.155C31.5133 316.441 32.0187 317.286 32.3373 317.433C33.9267 317.976 49.932 310.189 63.284 300.568C69.036 296.421 78.568 288.596 87.4133 281.155C98.42 271.9 108.339 263.253 108.516 263.097C108.631 262.995 108.792 262.956 108.937 262.997C109.083 263.039 109.193 263.145 109.241 263.288L112.261 272.402L133.072 335.153Z" fill="black" fill-opacity="0.2"/>
<path d="M42.1494 214.615L42.3361 214.707C42.4427 215.111 42.5574 215.447 42.6814 215.711C45.2334 210.171 47.2707 205.324 48.1907 202.2C51.9707 189.381 62.6601 178.217 62.6601 178.217C60.8921 174.649 58.5481 170.531 53.4281 168.275C48.3067 166.02 41.5747 167.405 37.9454 171.541C34.3161 175.677 35.2187 178.137 32.7721 181.008C30.3241 183.879 24.2241 188.369 22.1841 193.053C20.1441 197.737 20.9934 200.536 21.3828 202.895C21.7721 205.253 22.0401 207.163 17.0121 209.188C11.9841 211.213 2.98407 222.34 1.06407 227.341C-0.855928 232.341 0.0707321 242.127 7.2574 247.832C10.2441 250.203 15.0521 253.027 18.3334 254.863C19.5254 247.277 21.2947 239.888 23.6521 234.74C28.7094 223.697 36.0121 217.453 42.1494 214.615Z" fill="black"/>
<path d="M120.58 250.441C120.58 250.441 119.995 251.491 118.072 252.885C115.933 254.437 112.137 256.42 105.639 257.867C103.524 258.337 101.38 258.719 99.232 259.023C88.856 260.489 78.3827 259.999 70.4761 257.481C70.4761 257.481 72.688 255.088 70.296 249.167C67.904 243.245 52.9707 219.903 52.9707 219.903C52.9707 219.903 52.552 221.377 50.0667 221.093C47.5814 220.808 43.7867 217.36 42.856 216.028C42.796 215.941 42.7387 215.831 42.6814 215.711C42.5574 215.447 42.4427 215.111 42.336 214.707L42.1494 214.615C36.0121 217.453 28.7094 223.697 23.652 234.74C21.2947 239.888 19.5254 247.277 18.3334 254.863C16.9694 263.548 16.3614 272.491 16.4947 278.624C16.744 290.115 16.4534 297.672 16.4534 297.672C16.4534 297.672 22.4494 298.668 25.96 299.493C29.472 300.319 41.7801 301.404 41.7801 301.404C41.7801 301.404 51.2094 294.1 63.2054 285.084L63.8454 279.512C63.8454 279.512 65.9814 280.002 69.3534 280.483C75.508 281.359 85.7961 282.2 94.8481 279.965C107.016 276.962 118.475 268.875 123.431 263.799C124.181 263.029 124.788 262.327 125.22 261.724C125.22 261.724 126.883 255.264 120.58 250.441Z" fill="black"/>
<path d="M41.7367 205.28C41.7844 206.02 41.8357 206.74 41.8893 207.435L41.8895 207.437C41.9532 208.315 42.0248 209.156 42.1042 209.933L42.1043 209.935C42.2999 211.899 42.5315 213.501 42.8153 214.582C42.9707 215.157 43.1245 215.538 43.2641 215.735L43.2641 215.735L43.2661 215.738C43.6907 216.346 44.8293 217.506 46.1856 218.557C46.8584 219.078 47.5708 219.561 48.2585 219.929C48.9518 220.3 49.5896 220.538 50.1197 220.601C51.2589 220.728 51.8472 220.45 52.1418 220.213C52.2952 220.09 52.3874 219.963 52.4397 219.874C52.4485 219.859 52.4561 219.845 52.4627 219.832L51.7592 214.589L51.7591 214.588L51.1682 210.135C50.3483 210.094 49.4832 209.978 48.5807 209.778C45.3152 209.067 43.1563 207.263 41.7367 205.28Z" fill="white" stroke="black"/>
<path d="M41.5687 203.073C40.8895 201.732 40.5037 200.42 40.2882 199.441C40.1806 198.952 40.116 198.549 40.0783 198.27C40.0595 198.13 40.0475 198.022 40.0402 197.949C40.0366 197.913 40.0342 197.886 40.0327 197.868L40.0312 197.849L40.0309 197.845L40.0309 197.845L40.0308 197.845L40.0308 197.845L40.0308 197.845L39.9589 196.812L39.2221 197.486C39.2159 197.489 39.2068 197.492 39.1946 197.496C39.1415 197.513 39.0135 197.542 38.7857 197.514C38.3212 197.457 37.4523 197.166 36.0267 196.097C34.697 195.1 33.8725 193.391 33.5896 191.777C33.4489 190.974 33.448 190.226 33.5688 189.634C33.6924 189.028 33.9249 188.665 34.1759 188.507C34.872 188.069 35.439 188.125 35.8505 188.483C36.3122 188.883 36.7148 189.773 36.7482 191.291L36.7673 192.158L37.5081 191.707L37.2481 191.28C37.5081 191.707 37.5083 191.707 37.5084 191.707L37.5088 191.707L37.5096 191.706L37.5119 191.705L37.5189 191.7L37.5416 191.686C37.5606 191.674 37.5872 191.657 37.6208 191.634C37.688 191.589 37.7831 191.522 37.9003 191.434C38.1347 191.258 38.4586 190.995 38.8269 190.641C39.563 189.932 40.4806 188.853 41.2126 187.366C41.5859 186.609 41.8064 185.852 42.0183 185.119L42.0293 185.081C42.2397 184.352 42.4452 183.641 42.7847 182.896C43.4646 181.404 44.7083 179.723 47.7029 177.725C50.6439 175.763 53.7469 175.345 56.3946 175.734C59.0601 176.125 61.222 177.327 62.283 178.546C62.7661 179.1 63.1839 180.227 63.4809 181.812C63.7729 183.37 63.9334 185.284 63.9638 187.328C64.0246 191.424 63.563 195.973 62.6374 199.143C61.8209 201.938 60.6061 204.479 58.8305 206.299C57.0695 208.103 54.7382 209.219 51.6165 209.149L51.6164 209.149C50.7401 209.13 49.8013 209.02 48.7902 208.801L41.5687 203.073ZM41.5687 203.073C42.7918 205.485 44.9505 207.967 48.7899 208.801L41.5687 203.073Z" fill="white" stroke="black"/>
<path d="M52.2719 187.723C52.1385 187.725 52.0039 187.669 51.9119 187.556C50.3305 185.605 46.8492 184.785 44.3065 185.765C44.0705 185.851 43.8132 185.737 43.7225 185.507C43.6332 185.275 43.7492 185.013 43.9812 184.923C46.9052 183.797 50.7745 184.723 52.6132 186.988C52.7692 187.181 52.7399 187.465 52.5465 187.623C52.4652 187.688 52.3692 187.721 52.2719 187.723Z" fill="#0C0346"/>
<path d="M36.7707 195.272C36.644 195.275 36.5173 195.224 36.4253 195.123C36.364 195.055 34.944 193.449 34.6627 191.464C34.628 191.217 34.7987 190.989 35.0454 190.955C35.2854 190.912 35.5187 191.091 35.5547 191.337C35.7987 193.055 37.0827 194.507 37.0973 194.521C37.2627 194.707 37.2467 194.992 37.0613 195.157C36.9787 195.232 36.8747 195.271 36.7707 195.272Z" fill="#0C0346"/>
<path d="M57.9466 201.649C57.8413 201.652 57.736 201.617 57.652 201.548L53.5213 198.183C53.3293 198.024 53.3 197.741 53.4573 197.548C53.6133 197.355 53.8986 197.327 54.0906 197.483L57.5373 200.292L58.248 187.783C58.2573 187.632 58.3413 187.495 58.4733 187.419C58.6093 187.341 61.816 185.525 64.3426 186.599C64.5706 186.696 64.6773 186.961 64.58 187.191C64.4826 187.419 64.2186 187.525 63.988 187.429C62.204 186.668 59.8453 187.728 59.1333 188.088L58.3866 201.224C58.3773 201.393 58.2733 201.543 58.1186 201.612C58.064 201.636 58.004 201.648 57.9466 201.649Z" fill="#0C0346"/>
<path d="M54.2999 204.879C53.2652 204.901 52.2452 204.571 51.4719 204.227C51.0306 204.029 49.7332 203.372 49.5826 202.949C49.4999 202.715 49.6212 202.457 49.8572 202.373C50.0559 202.3 50.2732 202.383 50.3852 202.552C50.7505 202.909 53.4412 204.555 55.3505 203.765C55.5799 203.669 55.8439 203.779 55.9386 204.009C56.0346 204.24 55.9239 204.503 55.6945 204.597C55.2399 204.785 54.7679 204.868 54.2999 204.879Z" fill="#0C0346"/>
<path d="M71.2467 258.164C71.1947 258.165 71.1427 258.159 71.0907 258.14C57.9187 253.627 47.9827 236.672 47.072 233.016C47.012 232.775 47.1587 232.529 47.4 232.471C47.6427 232.408 47.888 232.556 47.9467 232.799C48.8334 236.36 58.5254 252.883 71.3827 257.287C71.6187 257.368 71.744 257.624 71.6627 257.86C71.6 258.044 71.4307 258.16 71.2467 258.164Z" fill="black"/>
<path d="M63.856 279.963C63.8294 279.963 63.8027 279.96 63.776 279.957C37.5947 275.853 28.78 244.744 28.3547 240.193C28.332 239.944 28.5134 239.724 28.7614 239.701C29.0054 239.68 29.2294 239.86 29.2534 240.108C29.648 244.349 38.6827 275.11 63.9147 279.067C64.1614 279.105 64.3294 279.336 64.2907 279.581C64.2574 279.8 64.0694 279.957 63.856 279.963Z" fill="#0C0346"/>
<path d="M50.4947 191.103C50.268 191.765 49.7507 192.189 49.3387 192.048C48.9267 191.908 48.776 191.256 49.0013 190.593C49.228 189.931 49.7453 189.508 50.1573 189.649C50.5693 189.789 50.72 190.441 50.4947 191.103Z" fill="#0C0346"/>
<path d="M62.38 191.784C62.1547 192.447 61.6373 192.869 61.224 192.729C60.812 192.588 60.6613 191.937 60.888 191.275C61.1133 190.612 61.6307 190.189 62.044 190.329C62.456 190.471 62.6067 191.121 62.38 191.784Z" fill="#0C0346"/>
<path d="M32.0534 185.665C31.8627 185.669 31.6827 185.551 31.6174 185.361C31.5374 185.125 31.6627 184.868 31.8987 184.788C35.2027 183.664 39.2014 180.399 40.1041 176.565C40.1761 176.265 40.2387 175.976 40.3001 175.7C41.1241 171.943 41.8121 170.381 50.7121 169.463C50.9734 169.44 51.1814 169.617 51.2067 169.864C51.2321 170.112 51.0521 170.333 50.8054 170.359C42.1987 171.248 41.9001 172.608 41.1801 175.892C41.1188 176.173 41.0548 176.467 40.9828 176.772C40.0041 180.921 35.7214 184.439 32.1894 185.641C32.1441 185.657 32.0987 185.664 32.0534 185.665Z" fill="white"/>
<path d="M11.8987 217.639C11.8267 217.64 11.752 217.625 11.6853 217.589C11.4627 217.477 11.3733 217.207 11.4867 216.985C12.7667 214.46 15.3 213.14 17.7494 211.864C20.1574 210.608 22.4334 209.423 23.076 207.229C23.5187 205.724 23.6213 204.295 23.732 202.783C23.9547 199.716 24.208 196.24 27.3587 191.091C27.4893 190.879 27.7667 190.812 27.9787 190.943C28.192 191.072 28.2587 191.349 28.128 191.563C25.0907 196.524 24.8573 199.739 24.6307 202.848C24.5173 204.409 24.4107 205.885 23.9414 207.483C23.1907 210.044 20.7493 211.316 18.1653 212.663C15.8427 213.873 13.44 215.125 12.2907 217.392C12.212 217.545 12.0587 217.636 11.8987 217.639Z" fill="white"/>
<path d="M9.84145 237.068C9.65745 237.072 9.48412 236.964 9.41212 236.784C7.78812 232.687 10.8214 224.631 17.7721 219.619C17.9708 219.475 18.2534 219.519 18.4014 219.721C18.5468 219.924 18.5001 220.205 18.2988 220.351C11.8761 224.981 8.75076 232.671 10.2508 236.452C10.3414 236.684 10.2281 236.945 9.99744 237.037C9.94677 237.057 9.89211 237.068 9.84145 237.068Z" fill="white"/>
<path d="M25.5532 223.653C25.3866 223.657 25.2239 223.568 25.1426 223.411C25.0292 223.189 25.1146 222.916 25.3359 222.803C30.1292 220.329 33.4986 210.88 32.0119 204.08C31.9573 203.836 32.1119 203.596 32.3559 203.543C32.5946 203.488 32.8399 203.643 32.8919 203.885C34.4519 211.021 30.8479 220.973 25.7506 223.604C25.6879 223.636 25.6199 223.652 25.5532 223.653Z" fill="white"/>
</svg>
