<svg width="2647" height="724" viewBox="0 0 2647 724" fill="none" xmlns="http://www.w3.org/2000/svg">
<path d="M157.8 574C153.8 574 150.4 572.8 147.6 570.4C145.2 567.6 144 564.2 144 560.2V207.4H28.8C24.8 207.4 21.4 206.2 18.6 203.8C16.2 201 15 197.6 15 193.6V168.4C15 164 16.2 160.6 18.6 158.2C21.4 155.4 24.8 154 28.8 154H318C322.4 154 325.8 155.4 328.2 158.2C331 160.6 332.4 164 332.4 168.4V193.6C332.4 197.6 331 201 328.2 203.8C325.8 206.2 322.4 207.4 318 207.4H203.4V560.2C203.4 564.2 202 567.6 199.2 570.4C196.8 572.8 193.4 574 189 574H157.8ZM326.93 574C323.73 574 320.93 572.8 318.53 570.4C316.13 568 314.93 565.2 314.93 562C314.93 560 315.13 557.8 315.53 555.4L464.33 167.2C465.93 163.2 468.13 160 470.93 157.6C473.73 155.2 477.93 154 483.53 154H524.33C529.53 154 533.53 155.2 536.33 157.6C539.53 160 541.93 163.2 543.53 167.2L691.73 555.4C692.53 557.8 692.93 560 692.93 562C692.93 565.2 691.73 568 689.33 570.4C686.93 572.8 684.13 574 680.93 574H650.33C645.53 574 641.93 572.8 639.53 570.4C637.53 568 636.13 565.8 635.33 563.8L602.33 478.6H405.53L372.53 563.8C372.13 565.8 370.73 568 368.33 570.4C365.93 572.8 362.33 574 357.53 574H326.93ZM422.93 427H584.93L503.93 214L422.93 427ZM770.883 574C766.883 574 763.483 572.8 760.683 570.4C758.283 567.6 757.083 564.2 757.083 560.2V168.4C757.083 164 758.283 160.6 760.683 158.2C763.483 155.4 766.883 154 770.883 154H800.883C805.683 154 809.283 155.2 811.683 157.6C814.083 160 815.483 162 815.883 163.6L943.083 406L1070.88 163.6C1071.68 162 1073.08 160 1075.08 157.6C1077.48 155.2 1081.08 154 1085.88 154H1115.28C1119.68 154 1123.08 155.4 1125.48 158.2C1128.28 160.6 1129.68 164 1129.68 168.4V560.2C1129.68 564.2 1128.28 567.6 1125.48 570.4C1123.08 572.8 1119.68 574 1115.28 574H1085.88C1081.88 574 1078.48 572.8 1075.68 570.4C1073.28 567.6 1072.08 564.2 1072.08 560.2V265L971.883 460.6C970.283 464.6 967.883 467.8 964.683 470.2C961.483 472.2 957.483 473.2 952.683 473.2H934.083C928.883 473.2 924.683 472.2 921.483 470.2C918.683 467.8 916.283 464.6 914.283 460.6L814.083 265V560.2C814.083 564.2 812.683 567.6 809.883 570.4C807.483 572.8 804.283 574 800.283 574H770.883ZM1205.25 574C1202.05 574 1199.25 572.8 1196.85 570.4C1194.45 568 1193.25 565.2 1193.25 562C1193.25 560 1193.45 557.8 1193.85 555.4L1342.65 167.2C1344.25 163.2 1346.45 160 1349.25 157.6C1352.05 155.2 1356.25 154 1361.85 154H1402.65C1407.85 154 1411.85 155.2 1414.65 157.6C1417.85 160 1420.25 163.2 1421.85 167.2L1570.05 555.4C1570.85 557.8 1571.25 560 1571.25 562C1571.25 565.2 1570.05 568 1567.65 570.4C1565.25 572.8 1562.45 574 1559.25 574H1528.65C1523.85 574 1520.25 572.8 1517.85 570.4C1515.85 568 1514.45 565.8 1513.65 563.8L1480.65 478.6H1283.85L1250.85 563.8C1250.45 565.8 1249.05 568 1246.65 570.4C1244.25 572.8 1240.65 574 1235.85 574H1205.25ZM1301.25 427H1463.25L1382.25 214L1301.25 427ZM1718.04 574C1714.04 574 1710.64 572.8 1707.84 570.4C1705.44 567.6 1704.24 564.2 1704.24 560.2V418.6L1559.64 173.8C1559.24 172.6 1558.84 171.4 1558.44 170.2C1558.04 169 1557.84 167.6 1557.84 166C1557.84 162.8 1559.04 160 1561.44 157.6C1563.84 155.2 1566.64 154 1569.84 154H1601.04C1604.64 154 1607.84 155 1610.64 157C1613.44 158.6 1615.44 161 1616.64 164.2L1733.64 358.6L1850.64 164.2C1852.64 161 1854.84 158.6 1857.24 157C1860.04 155 1863.24 154 1866.84 154H1897.44C1901.04 154 1904.04 155.2 1906.44 157.6C1908.84 160 1910.04 162.8 1910.04 166C1910.04 167.6 1909.84 169 1909.44 170.2C1909.04 171.4 1908.44 172.6 1907.64 173.8L1763.64 418.6V560.2C1763.64 564.2 1762.24 567.6 1759.44 570.4C1757.04 572.8 1753.64 574 1749.24 574H1718.04ZM1908.96 574C1905.76 574 1902.96 572.8 1900.56 570.4C1898.16 568 1896.96 565.2 1896.96 562C1896.96 560 1897.16 557.8 1897.56 555.4L2046.36 167.2C2047.96 163.2 2050.16 160 2052.96 157.6C2055.76 155.2 2059.96 154 2065.56 154H2106.36C2111.56 154 2115.56 155.2 2118.36 157.6C2121.56 160 2123.96 163.2 2125.56 167.2L2273.76 555.4C2274.56 557.8 2274.96 560 2274.96 562C2274.96 565.2 2273.76 568 2271.36 570.4C2268.96 572.8 2266.16 574 2262.96 574H2232.36C2227.56 574 2223.96 572.8 2221.56 570.4C2219.56 568 2218.16 565.8 2217.36 563.8L2184.36 478.6H1987.56L1954.56 563.8C1954.16 565.8 1952.76 568 1950.36 570.4C1947.96 572.8 1944.36 574 1939.56 574H1908.96ZM2004.96 427H2166.96L2085.96 214L2004.96 427ZM2325.31 574C2320.91 574 2317.51 572.6 2315.11 569.8C2312.71 567 2311.51 563.6 2311.51 559.6V533.8C2311.51 527.8 2312.71 523 2315.11 519.4C2317.51 515.8 2319.31 513.2 2320.51 511.6L2543.71 206.2H2330.71C2326.71 206.2 2323.31 205 2320.51 202.6C2318.11 199.8 2316.91 196.4 2316.91 192.4V168.4C2316.91 164 2318.11 160.6 2320.51 158.2C2323.31 155.4 2326.71 154 2330.71 154H2602.51C2606.91 154 2610.31 155.4 2612.71 158.2C2615.11 160.6 2616.31 164 2616.31 168.4V194.2C2616.31 199 2615.51 203 2613.91 206.2C2612.71 209.4 2610.91 212.4 2608.51 215.2L2387.71 521.8H2608.51C2612.91 521.8 2616.31 523.2 2618.71 526C2621.51 528.4 2622.91 531.8 2622.91 536.2V560.2C2622.91 564.2 2621.51 567.6 2618.71 570.4C2616.31 572.8 2612.91 574 2608.51 574H2325.31Z" fill="#03346E"/>
<path d="M1731.24 296.255L1586.54 75.0868L1874.25 73.9905L1731.24 296.255Z" fill="#6EACDA"/>
</svg>
